<?xml version="1.0" encoding="UTF-8" standalone="no"?>
<svg
   width="24"
   height="24"
   version="1.1"
   id="svg1"
   xmlns="http://www.w3.org/2000/svg"
   xmlns:svg="http://www.w3.org/2000/svg">
  <defs
     id="defs1">
    <style
       id="current-color-scheme"
       type="text/css">
   .ColorScheme-Text { color:#dfdfdf; } .ColorScheme-Highlight { color:#4285f4; } .ColorScheme-NeutralText { color:#ff9800; } .ColorScheme-PositiveText { color:#4caf50; } .ColorScheme-NegativeText { color:#f44336; }
  </style>
  </defs>
  <g
     transform="translate(4,4)"
     id="g1"
     style="fill:#919193;fill-opacity:1">
    <path
       style="fill:#919193;fill-opacity:1"
       class="ColorScheme-Text"
       d="M 5,4 C 4.446,4 4,4.446 4,5 v 6 c 0,0.554 0.446,1 1,1 h 6 c 0.554,0 1,-0.446 1,-1 V 5 C 12,4.446 11.554,4 11,4 Z m 1.5,3 h 3 C 9.777,7 10,7.223 10,7.5 v 2 C 10,9.777 9.777,10 9.5,10 h -3 C 6.223,10 6,9.777 6,9.5 v -2 C 6,7.223 6.223,7 6.5,7 Z"
       id="path1" />
  </g>
</svg>
